<svg xmlns="http://www.w3.org/2000/svg" viewBox="0 0 64 64" width="64" height="64" role="img" aria-label="SPBIM"><defs><g id="g"><g fill="none" stroke="currentColor" stroke-linecap="round"><circle cx="29.95" cy="29.95" r="14.37" stroke-width="5.06"/><line x1="40.11" y1="40.11" x2="49.05" y2="49.05" stroke-width="6.21"/></g></g><clipPath id="disco"><circle cx="32.0" cy="32.0" r="31.0"/></clipPath></defs><circle cx="32.0" cy="32.0" r="31.0" fill="#ffffff" stroke="#e2dcef" stroke-width="1.4"/><g clip-path="url(#disco)" color="#6a3dae" opacity="0.17"><use href="#g" transform="translate(1.40 1.40)"/><use href="#g" transform="translate(2.80 2.80)"/><use href="#g" transform="translate(4.20 4.20)"/><use href="#g" transform="translate(5.60 5.60)"/><use href="#g" transform="translate(7.00 7.00)"/><use href="#g" transform="translate(8.40 8.40)"/><use href="#g" transform="translate(9.80 9.80)"/><use href="#g" transform="translate(11.20 11.20)"/><use href="#g" transform="translate(12.60 12.60)"/><use href="#g" transform="translate(14.00 14.00)"/><use href="#g" transform="translate(15.40 15.40)"/><use href="#g" transform="translate(16.80 16.80)"/><use href="#g" transform="translate(18.20 18.20)"/><use href="#g" transform="translate(19.60 19.60)"/><use href="#g" transform="translate(21.00 21.00)"/><use href="#g" transform="translate(22.40 22.40)"/><use href="#g" transform="translate(23.80 23.80)"/><use href="#g" transform="translate(25.20 25.20)"/><use href="#g" transform="translate(26.60 26.60)"/><use href="#g" transform="translate(28.00 28.00)"/><use href="#g" transform="translate(29.40 29.40)"/><use href="#g" transform="translate(30.80 30.80)"/><use href="#g" transform="translate(32.20 32.20)"/><use href="#g" transform="translate(33.60 33.60)"/><use href="#g" transform="translate(35.00 35.00)"/><use href="#g" transform="translate(36.40 36.40)"/><use href="#g" transform="translate(37.80 37.80)"/><use href="#g" transform="translate(39.20 39.20)"/><use href="#g" transform="translate(40.60 40.60)"/><use href="#g" transform="translate(42.00 42.00)"/><use href="#g" transform="translate(43.40 43.40)"/><use href="#g" transform="translate(44.80 44.80)"/><use href="#g" transform="translate(46.20 46.20)"/><use href="#g" transform="translate(47.60 47.60)"/><use href="#g" transform="translate(49.00 49.00)"/><use href="#g" transform="translate(50.40 50.40)"/><use href="#g" transform="translate(51.80 51.80)"/><use href="#g" transform="translate(53.20 53.20)"/><use href="#g" transform="translate(54.60 54.60)"/><use href="#g" transform="translate(56.00 56.00)"/><use href="#g" transform="translate(57.40 57.40)"/><use href="#g" transform="translate(58.80 58.80)"/><use href="#g" transform="translate(60.20 60.20)"/><use href="#g" transform="translate(61.60 61.60)"/><use href="#g" transform="translate(63.00 63.00)"/><use href="#g" transform="translate(64.40 64.40)"/><use href="#g" transform="translate(65.80 65.80)"/><use href="#g" transform="translate(67.20 67.20)"/><use href="#g" transform="translate(68.60 68.60)"/><use href="#g" transform="translate(70.00 70.00)"/><use href="#g" transform="translate(71.40 71.40)"/><use href="#g" transform="translate(72.80 72.80)"/><use href="#g" transform="translate(74.20 74.20)"/><use href="#g" transform="translate(75.60 75.60)"/><use href="#g" transform="translate(77.00 77.00)"/><use href="#g" transform="translate(78.40 78.40)"/><use href="#g" transform="translate(79.80 79.80)"/><use href="#g" transform="translate(81.20 81.20)"/><use href="#g" transform="translate(82.60 82.60)"/><use href="#g" transform="translate(84.00 84.00)"/><use href="#g" transform="translate(85.40 85.40)"/><use href="#g" transform="translate(86.80 86.80)"/><use href="#g" transform="translate(88.20 88.20)"/><use href="#g" transform="translate(89.60 89.60)"/><use href="#g" transform="translate(91.00 91.00)"/><use href="#g" transform="translate(92.40 92.40)"/><use href="#g" transform="translate(93.80 93.80)"/><use href="#g" transform="translate(95.20 95.20)"/></g><g color="#6a3dae"><g fill="none" stroke="currentColor" stroke-linecap="round"><circle cx="29.95" cy="29.95" r="14.37" stroke-width="5.06"/><line x1="40.11" y1="40.11" x2="49.05" y2="49.05" stroke-width="6.21"/></g></g></svg>